<?xml version="1.0" standalone="no"?>
<!DOCTYPE svg PUBLIC "-//W3C//DTD SVG 20010904//EN"
 "http://www.w3.org/TR/2001/REC-SVG-20010904/DTD/svg10.dtd">
<svg version="1.0" xmlns="http://www.w3.org/2000/svg"
 width="204.000000pt" height="204.000000pt" viewBox="0 0 204.000000 204.000000"
 preserveAspectRatio="xMidYMid meet">
<metadata>
Created by potrace 1.11, written by Peter Selinger 2001-2013
</metadata>
<g transform="translate(0.000000,204.000000) scale(0.100000,-0.100000)"
fill="#000000" stroke="none">
<path d="M152 1937 c-23 -11 -24 -14 -26 -117 l-1 -65 -38 -6 c-44 -7 -45 -8
-50 -40 -5 -30 17 -48 58 -49 l30 0 1 -149 c1 -163 12 -204 72 -256 58 -51
163 -56 184 -10 10 22 -2 63 -20 66 -4 1 -25 2 -46 3 -28 2 -45 10 -62 29 -21
24 -22 36 -23 171 l-2 146 55 0 c45 0 58 4 70 21 15 22 11 48 -8 61 -6 4 -35
8 -63 8 l-53 0 0 83 c0 45 -4 87 -8 93 -11 17 -45 22 -70 11z"/>
<path d="M1395 1769 c-91 -20 -172 -90 -197 -171 -29 -90 -29 -89 -4 -206 8
-38 42 -86 86 -121 44 -35 79 -48 149 -58 42 -5 43 -5 36 18 -14 50 -29 68
-72 84 -78 30 -113 85 -114 178 0 58 17 99 62 143 40 39 41 39 119 39 77 0 80
-1 115 -35 50 -48 66 -91 62 -164 -5 -81 6 -106 49 -106 31 0 34 3 45 43 27
102 -11 231 -86 292 -81 65 -156 85 -250 64z"/>
<path d="M655 1753 c-53 -28 -109 -79 -134 -124 -36 -65 -40 -195 -7 -264 26
-57 81 -109 143 -137 59 -26 158 -19 218 17 24 14 47 30 50 35 11 18 20 11 22
-17 0 -15 9 -33 20 -40 20 -15 63 -9 75 10 4 6 7 78 7 160 0 125 -3 158 -20
203 -24 63 -84 128 -143 155 -52 24 -186 24 -231 2z m229 -114 c102 -90 80
-268 -41 -320 -127 -54 -264 40 -255 176 5 80 31 126 93 164 26 17 48 21 97
20 57 -2 67 -5 106 -40z"/>
<path d="M1514 1442 c-31 -5 -55 -35 -56 -70 -1 -27 34 -94 129 -244 25 -41
31 -74 11 -62 -41 26 -117 -14 -118 -61 0 -37 67 -90 93 -73 1 1 12 -4 23 -10
12 -6 36 -14 54 -17 49 -9 129 -45 140 -64 8 -14 12 -13 39 7 17 12 35 22 40
22 5 0 16 6 23 13 7 7 41 28 76 47 54 29 62 37 57 54 -4 12 -9 50 -12 84 -5
72 -25 125 -78 207 l-36 56 -71 -5 c-39 -3 -76 -10 -81 -15 -5 -5 -24 -7 -42
-4 -20 3 -35 1 -40 -7 -5 -8 -15 0 -31 24 -13 19 -24 38 -24 41 0 13 -42 65
-58 73 -9 4 -27 6 -38 4z"/>
<path d="M1062 1028 c-6 -8 -9 -134 -8 -338 1 -321 1 -325 24 -362 32 -51 72
-78 120 -80 46 -1 72 18 72 54 0 31 -18 48 -50 48 -14 0 -34 7 -44 15 -18 14
-19 32 -20 328 -1 250 -4 317 -15 330 -16 20 -64 22 -79 5z"/>
<path d="M147 962 c-13 -14 -17 -38 -17 -98 l0 -80 -36 -1 c-41 -1 -41 -1 -48
-33 -9 -36 7 -53 48 -53 l36 0 0 -137 c0 -188 20 -243 108 -293 83 -47 175
-10 144 58 -9 20 -19 25 -47 25 -85 0 -101 32 -100 210 l0 134 51 1 c58 1 84
16 84 51 0 26 -23 36 -90 39 l-45 1 -1 81 c0 52 -5 87 -13 97 -18 21 -54 20
-74 -2z"/>
<path d="M469 797 c-13 -7 -25 -20 -27 -30 -3 -16 33 -105 48 -117 3 -3 23
-41 45 -85 22 -44 44 -83 50 -87 5 -4 6 -8 1 -8 -5 0 -2 -8 6 -17 8 -10 30
-48 48 -84 l33 -65 -26 -57 c-14 -31 -24 -57 -22 -57 2 0 -9 -27 -26 -59 -38
-78 -38 -105 0 -121 17 -6 35 -9 41 -5 9 6 51 89 49 98 0 1 11 26 26 56 15 29
28 58 30 65 2 13 67 154 95 209 11 22 20 42 20 47 0 4 19 47 42 96 23 49 42
91 42 94 1 3 9 22 19 43 21 43 15 75 -16 86 -32 12 -51 3 -67 -32 -7 -18 -29
-66 -48 -107 -50 -112 -67 -150 -88 -202 -10 -27 -21 -48 -24 -48 -3 0 -48 86
-100 191 -52 105 -102 195 -111 199 -9 5 -25 4 -40 -3z"/>
<path d="M1538 797 c-21 -5 -38 -13 -38 -18 0 -5 -6 -9 -14 -9 -23 0 -81 -62
-106 -115 -37 -76 -33 -232 7 -278 85 -99 143 -129 247 -127 109 3 126 4 126
12 0 4 16 15 35 24 39 18 55 55 35 79 -17 21 -42 19 -92 -7 -32 -17 -59 -23
-103 -22 -90 1 -147 38 -180 117 l-15 37 209 0 c174 0 211 2 221 15 15 19 7
105 -15 157 -19 48 -82 111 -125 128 -42 16 -141 20 -192 7z m162 -95 c39 -19
80 -74 80 -107 0 -22 -1 -22 -166 -22 l-166 0 6 29 c7 38 62 96 100 107 50 15
109 12 146 -7z"/>
</g>
</svg>
