<svg xmlns="http://www.w3.org/2000/svg" viewBox="0 0 66.73 50.89"><defs><style>.cls-1{fill:#73be99;fill-rule:evenodd;}</style></defs><g id="Layer_2" data-name="Layer 2"><g id="Layer_1-2" data-name="Layer 1"><path class="cls-1" d="M0,41.09l10,.06C9.75,42,7.43,44.94,6.74,46,5.83,47.29,4,49.44,3.41,50.89H63.58a33.44,33.44,0,0,0-3.19-4.82c-.59-.82-1.08-1.62-1.69-2.47l-1.29-2.37,9.32-.14V26.88c-.59-.63-1.13-2.43-3-3.38a8.93,8.93,0,0,0-5.6-.42c-4.82,1.16-4.73,7-4.14,8.17A5.81,5.81,0,0,0,56,29c.59-.88,1.12-1.57,1.75-2.41,3.13-4.23,9.08-.49,5.66,4.63-1.12,1.68-2.16,3.14-3.34,4.71-1.72,2.29-1.86,2.68-5.54,2.71a62,62,0,0,1-8.11-.15,3.62,3.62,0,0,1-2.54-5.26c1-2.12,3.16-1.94,6-2-.62-1.72-1.27-1.23-3.42-1.21H24.67c-3.46,0-7.08-.65-7.12,1.2,2.95.1,5.05.22,5.58,2.8,1.21,5.8-6.82,4.66-11.46,4.59-3.36-.06-3.6-.82-5.12-2.86C4.06,32.43,0,28,3.81,25.36c4.55-3.06,6.58,4.76,8.91,5.89A.9.9,0,0,0,12.8,31c0-.05,0-.14.06-.21L13,29.6c-.11-7.91-7.71-7.37-10.14-6a6.51,6.51,0,0,0-1.63,1.48c-.57.69-.61,1.19-1.19,1.8Z"/><path class="cls-1" d="M23.35,28.3h3.91l0-9.4c1.68,0,1.21-.46,1.21,4,0,1.82,0,3.64,0,5.45H38l-.13-9.4c1.7,0,1.22-.54,1.22,4V28.3H43c-.29-9.61,2.1-15.87-9.78-15.75-3.67,0-7.14-.07-9.06,3.57C22.75,18.82,23.35,24.85,23.35,28.3Z"/><path class="cls-1" d="M5.33,10A6.17,6.17,0,0,0,1,17.22c1.77,7.72,13.71,5.19,11.87-2.78A6.08,6.08,0,0,0,5.33,10Z"/><path class="cls-1" d="M57.71,10.07a6,6,0,0,0-4.08,7.71,6.08,6.08,0,0,0,7.7,3.82C68.67,19.23,65.63,7.89,57.71,10.07Z"/><path class="cls-1" d="M34.19,0H32.58c-1.13.53-5.25,1.24-5.16,6,.14,7.28,10.83,7.54,11.5.47a5.84,5.84,0,0,0-1.19-4.19C36.7.89,35.72.91,34.19,0Z"/><path class="cls-1" d="M55.14,32.45c-2.55,0-5.09.07-7.64.11-1.26,0-1.84.13-2.43,1.09a2.29,2.29,0,0,0,.21,2.86c1.26,1.44,4.44.92,6.65.92,2.63,0,5.07.46,6.42-1.15,1.11-1.31,2.07-2.9,3.13-4.41.85-1.22,2.8-3.23,1.29-5.05-1.78-2.14-3.72,0-4.61,1.23A42.67,42.67,0,0,0,55.14,32.45Z"/><path class="cls-1" d="M11.6,32.44a46.12,46.12,0,0,0-3-4.39c-.89-1.25-2.81-3.38-4.63-1.25-1.51,1.78.49,3.89,1.32,5.07,1.09,1.55,2,3,3.13,4.4,1.31,1.64,3.75,1.15,6.41,1.16,2.21,0,5.4.53,6.65-.92.91-1,1.28-3.8-2.27-3.93C16.65,32.49,14.12,32.45,11.6,32.44Z"/></g></g></svg>