<svg xmlns="http://www.w3.org/2000/svg" viewBox="0 0 53.76 54.16"><defs><style>.cls-1{fill:#73be99;fill-rule:evenodd;}</style></defs><g id="Layer_2" data-name="Layer 2"><g id="Layer_1-2" data-name="Layer 1"><path class="cls-1" d="M43.7,45.21l4.87,0c.53.88.33,2.94.15,3.94l-5.23.09L43.39,46c.12-1-.07-.36.31-.83ZM16.65,46.66v2.25c-.31.41-.48.33-1.71.33a11.51,11.51,0,0,1-2.2-.13l-.08-2.65a11.48,11.48,0,0,1,2-.11c1.53,0,1.45-.14,2,.31ZM9,46.58,9,49a1.14,1.14,0,0,1-.65.24L5,49.07,5,46.49A5.56,5.56,0,0,1,6.9,46.3c.24,0,1,0,1.17,0l.89.28Zm7.68-5.07,0,2.45-3.55,0c-.58-.26-.44.21-.55-1.1a3.32,3.32,0,0,1,.27-1.59,11.67,11.67,0,0,1,1.87-.11c2.2,0,1.63,0,2,.3ZM5.05,41.34H9l0,2.64H5.16l-.11-2.63Zm38.46-2.55,5.2,0v3.73l-5.21.14v-3.9ZM12.75,36.36l3.91-.14,0,2.61-3.86,0,0-2.45Zm-7.69-.13H9l0,2.61H5.11l-.05-2.61Zm43.45.06-4.77,0c-.64-.43-.35-3-.24-3.85l5.22-.15.12,3.18c-.19,1.45.09.34-.33.85ZM37,11.52C34.49,10.45,14.4,3.68,12.76,3.57V31.11h8.86l.08,20.54c.65.27,5.89.68,6.53,0-.1-4.92.17-3.64-1.53-4.67a3.63,3.63,0,0,1-1.21-1.09,5.36,5.36,0,0,1-1.09-3.79c.62-6,9.83-5.87,10.14.26A5.27,5.27,0,0,1,33.29,46C30.82,49,30.79,45,30.68,51.58l1.47.31c.56,0,1.17,0,1.74,0a10.37,10.37,0,0,0,3.31-.21c.37-1.92.13-30.42.13-35.46V12.45c-.18-1.63,0-.34-.33-.93ZM43.79,26l4.7,0c.41.29.35.25.35,1.7a12.66,12.66,0,0,1-.12,2.22L43.5,30a18.35,18.35,0,0,1-.1-2c0-2.38,0-1.62.39-2Zm-.28-6.44,5.2,0v3.72l-5.21.15V19.57ZM0,54.16H53.76V14.48l-14.09,0-.05-4.77L35.84,8.49l0-8.07L33.3.4l0,7.15-2.53-.78V.4H28.14V5.85L10.27,0V31.07l-3.93,0,0-6.36-2.53.1.05,6.28H0Z"/><polygon class="cls-1" points="15.38 28.55 34.46 28.55 34.5 26.01 15.47 26.03 15.38 28.55"/><polygon class="cls-1" points="34.44 18.19 34.41 15.87 15.47 15.88 15.48 18.17 34.44 18.19"/><polygon class="cls-1" points="24.35 33.71 34.6 33.71 34.53 31.13 24.35 31.13 24.35 33.71"/><polygon class="cls-1" points="15.56 23.39 25.58 23.42 25.61 21.02 15.58 21.03 15.56 23.39"/><polygon class="cls-1" points="23.03 13.06 23.02 10.66 15.49 10.63 15.49 13.04 23.03 13.06"/><polygon class="cls-1" points="34.38 23.4 34.43 21.09 28.12 21.05 28.15 23.41 34.38 23.4"/><path class="cls-1" d="M28.22,51.6H21.85l-.24-20.48.08,20.54C22.34,51.92,27.58,52.33,28.22,51.6Z"/></g></g></svg>