<svg xmlns="http://www.w3.org/2000/svg" viewBox="0 0 27.82 28.23"><defs><style>.cls-1,.cls-2{fill:#65072a;}.cls-1{fill-rule:evenodd;}</style></defs><g id="Layer_2" data-name="Layer 2"><g id="Layer_1-2" data-name="Layer 1"><path class="cls-1" d="M0,28.23H27.82V3.41l-3.95,0c-.12,1.32.12,1.89-.65,2.83A3,3,0,0,1,18,5a15,15,0,0,1-.09-1.64L10,3.41c-.11,1.37.12,1.8-.65,2.82A3,3,0,0,1,4.05,5,13,13,0,0,1,4,3.39L0,3.34V28.23ZM25.78,10.32c.1.34,0,2.85,0,3.43v3.48c0,2.85,0,5.87,0,8.7,0,.45-.1.3-1.42.3H2.2c-.2,0-.19,0-.2-.21,0-.58,0-1.19,0-1.77S1.94,10.67,2,10.32Z"/><path class="cls-1" d="M21.21,0h-.72a7.78,7.78,0,0,0-.83.4c-.92.75-.78,1.53-.78,2.76a3,3,0,0,0,.39,2,2,2,0,0,0,3.15,0,3,3,0,0,0,.37-2c0-1.15.15-2-.78-2.76A3.88,3.88,0,0,0,21.21,0Z"/><path class="cls-1" d="M7.18,0H6.6a6.31,6.31,0,0,0-.84.39C4.81,1.14,5,2,5,3.2a2.86,2.86,0,0,0,.4,2,2,2,0,0,0,3.17-.07,3.4,3.4,0,0,0,.35-2C8.89,2,9,1,8,.33A4.93,4.93,0,0,0,7.18,0Z"/><path class="cls-1" d="M22.81,17.1c-.06-.06.12-.05-.13-.05-.44,0-2.76-.05-3,0a19.56,19.56,0,0,0,0,2.76,25,25,0,0,0,3.14,0l0-2.59C22.85,17,22.86,17.17,22.81,17.1Z"/><path class="cls-1" d="M5,19.84c.25.05,2.91.05,3.14,0a19.65,19.65,0,0,0,0-2.77L5,17.05A19.9,19.9,0,0,0,5,19.84Z"/><path class="cls-1" d="M19.7,24.53a29.51,29.51,0,0,0,3.14,0V21.76c-.24-.07-2.77-.05-3.14,0A21.62,21.62,0,0,0,19.7,24.53Z"/><path class="cls-1" d="M9.93,24.51c.23.06,2.82,0,3.16,0a23.57,23.57,0,0,0,0-2.79c-.35,0-2.92,0-3.13,0Z"/><path class="cls-1" d="M15,24.51a23.8,23.8,0,0,0,3.16,0V21.76a23.8,23.8,0,0,0-3.16,0Z"/><path class="cls-1" d="M15,15.25a27.18,27.18,0,0,0,3.15,0,20.17,20.17,0,0,0,0-2.72c-.1-.06-.15,0-.31,0H15A21.27,21.27,0,0,0,15,15.25Z"/><polygon class="cls-1" points="4.95 24.52 8.1 24.54 8.12 21.75 4.97 21.73 4.95 24.52"/><polygon class="cls-1" points="9.95 15.24 13.07 15.24 13.08 12.49 9.96 12.48 9.95 15.24"/><path class="cls-1" d="M19.74,15.23h3.08l0-2.74c-.47,0-2.82-.06-3.11,0Z"/><polygon class="cls-1" points="18.12 17.08 15.04 17.09 15.04 19.79 18.12 19.81 18.12 17.08"/><polygon class="cls-1" points="9.94 19.8 12.99 19.8 13.05 19.8 13.05 17.12 9.96 17.12 9.94 19.8"/><polygon class="cls-1" points="5 17.27 5 19.81 8.08 19.81 8.07 17.11 5 17.11 5 17.27"/><polygon class="cls-1" points="22.81 17.1 19.73 17.11 19.73 19.81 22.8 19.81 22.81 17.1"/><polygon class="cls-1" points="5.01 24.49 8.06 24.49 8.07 21.78 5.01 21.78 5.01 24.49"/><polygon class="cls-1" points="9.98 24.49 13.04 24.49 13.05 21.78 9.98 21.79 9.98 24.49"/><polygon class="cls-1" points="15.05 24.48 18.1 24.5 18.11 21.79 15.05 21.78 15.05 24.48"/><rect class="cls-2" x="19.74" y="21.79" width="3.05" height="2.71"/><polygon class="cls-1" points="15.04 15.21 18.08 15.21 18.08 12.53 15.04 12.52 15.04 15.21"/><path class="cls-1" d="M25.78,10.32c.11.34,0,2.85,0,3.43v3.48c0,2.85,0,5.87,0,8.7,0,.45-.1.3-1.42.3H2.2c-.2,0-.19,0-.2-.21,0-.58,0-1.19,0-1.77S1.94,10.67,2,10.32c-.16,0-.1.57-.1.91,0,2.35,0,14.91,0,15a4.86,4.86,0,0,0,1.45.06c3.47,0,22.3.07,22.42-.05s0-12.91,0-15.47C25.89,10.58,25.94,10.38,25.78,10.32Z"/><path class="cls-1" d="M19.74,15.23V12.52c.29-.08,2.64,0,3.11,0-.09-.07.16-.07-.16-.06s-2.74-.06-3,0l0,2.64C19.68,15.34,19.66,15.16,19.74,15.23Z"/></g></g></svg>