<svg xmlns="http://www.w3.org/2000/svg" viewBox="0 0 58.35 51.32"><defs><style>.cls-1{fill:#73be99;fill-rule:evenodd;}</style></defs><g id="Layer_2" data-name="Layer 2"><g id="Layer_1-2" data-name="Layer 1"><path class="cls-1" d="M21.84,37.35c.72,1.43.34,12.1.34,13.66l14.09,0V38.21c.29-1.65-.05-.13.32-.86l1.64,0,.18-3L20,34.48l.12,2.92Z"/><path class="cls-1" d="M42.59,27.65a23.69,23.69,0,0,0-5.72-2.21L38,28.31l3.47-.08c-.35.16-.05.15-.74.26L35,28.61c3.91,4.26,1.75,4.17,7.12,4,2.1-.07,1.26-.32,2.77-1.06l0,2.92c-1.24.46-6.26,2.46-6.26,3.75v1.46c16.85,0,14.93,1,14.86-3.17-.1-5.79.71-8.77-1.35-13.16C47.16,23.17,46.41,22.72,42.59,27.65Z"/><path class="cls-1" d="M4.94,28.58l.12,11.2c3.17.63,11.32.26,15,.26-.61-3-.25-2.14-3.09-3.55a38,38,0,0,0-3.48-1.65V31.91c1.5.74.66,1,2.77,1,5.46.17,3.17.25,7.13-3.93l-5.68-.22c-.73-.14-.38,0-.79-.28,4.26.19,3.72.74,4.62-2.72A24.29,24.29,0,0,0,15.82,28c-1-1.44-3.57-4.34-5.37-4.34l-4.18,0C5.51,25.4,4.94,26.13,4.94,28.58Z"/><path class="cls-1" d="M16,10.67h1.49l-1.29,3.8A14.63,14.63,0,0,0,19,12.37c1.23-1,1.14-1.61,3.09-1.72,3.21-.17,6.68.16,10,0l0-10.6L16,0Z"/><path class="cls-1" d="M32.77,11.3l-8,0v2.47l10.11,0c2,.16,4.19,3.12,5.85,4.11l-1.3-3.79s.14-.19.17-.12l1.25-.18,0-10.67h-8Z"/><path class="cls-1" d="M0,25.74,1,43.85H4.14v5.63c-2.23,0-2.15-.57-2.34,1.14.17.77.39.61,2.78.57l5.24,0c1.38-.1.91.18,1.31-.49,1-1.7-1.2-1.25-2.26-1.3l-.09-5.56,3.29-.09V41.41l-8.51-.1-1.45-14s-.15-.79-.17-.85c-.4-1,.11-.35-.66-1Z"/><path class="cls-1" d="M54.87,41l-8.52,0,0,2.38,3.19.16.08,5.55-2.46,0c0,1.8-.37,1.55,1.11,1.76l5.92,0c2.27,0,2.41.32,2.41-1.74-3,0-2.45.86-2.41-5.62H57.4c.13-3.09,1.46-16.28.73-18.15l-1.2-.15Z"/><path class="cls-1" d="M48.16,11.66c-7.32,1.82-4.24,12.5,2.71,10.52C57.56,20.27,55.09,9.94,48.16,11.66Z"/><path class="cls-1" d="M7.87,12c-7.46,1.8-4.2,12.56,2.71,10.51C17.28,20.54,14.64,10.37,7.87,12Z"/><polygon class="cls-1" points="14.88 40.98 14.9 51.2 16.3 51.17 18.37 51.18 19.68 51.19 19.81 49.93 19.79 40.63 14.88 40.63 14.88 40.98"/><polygon class="cls-1" points="38.64 49.59 38.72 50.86 40.06 50.83 42.13 50.83 43.42 50.85 43.56 40.63 43.55 40.29 38.64 40.29 38.64 49.59"/><path class="cls-1" d="M36.59,37.35c-.37.73,0-.79-.32.86V51L22.18,51c0-1.56.38-12.23-.34-13.66V51.2l14.61.12Z"/><path class="cls-1" d="M13.16,49.93c0,1.73,0,1,.73,1.26.42-.54.37,0,.37-1.26v-9.3H13.15Z"/><path class="cls-1" d="M44.17,49.59c0,1.25,0,.72.37,1.25.72-.23.73.45.73-1.25v-9.3h-1.1Z"/></g></g></svg>