<svg xmlns="http://www.w3.org/2000/svg" viewBox="0 0 39.59 39.66"><defs><style>.cls-1,.cls-2{fill:#73be99;}.cls-1{fill-rule:evenodd;}</style></defs><g id="Layer_2" data-name="Layer 2"><g id="Layer_1-2" data-name="Layer 1"><path class="cls-1" d="M9.87,32.88V26.69c0-.61.33-1.09.92-1.09h6.86a.94.94,0,0,1,.92.92v6.36a.9.9,0,0,1-.84,1H10.87a.91.91,0,0,1-1-1Zm10.7-1.43a1.14,1.14,0,0,1,.32-.6,1.28,1.28,0,0,1,.77-.23h6a.9.9,0,0,1,.42,1.75H21.41a.89.89,0,0,1-.84-.92Zm0-3.68a.91.91,0,0,1,1-.92H32c1.16,0,1.05,1.76,0,1.76H21.41a.91.91,0,0,1-.84-.84Zm-10.7-6.6V15c0-1.43,1.46-1,1.76-1l1.75-.06c.33,0,.38.06.59.06l1.75-.06c.33,0,.38.06.59.06.42,0,2.26-.4,2.26.86v6.52a.9.9,0,0,1-.84.84h-7a.9.9,0,0,1-.84-1Zm10.7-1.34a.89.89,0,0,1,.67-.75H28c1,0,1,1.67,0,1.67H21.24c-.33,0-.67-.48-.67-.92Zm0-3.51a1,1,0,0,1,.92-1H31.78A.88.88,0,1,1,32,17.07H21.41c-.61,0-.84-.74-.84-.75Zm-10.7-7V3.18c0-.55.29-1,.84-1H17.9c.3,0,.67.49.67.84V9.54a.89.89,0,0,1-.67.84H10.71a.9.9,0,0,1-.84-1ZM20.57,8.2a.89.89,0,0,1,.84-.92H28.1A.91.91,0,0,1,27.68,9c-1.08,0-6.12.15-6.69-.17a1,1,0,0,1-.42-.67Zm0-3.76a1,1,0,0,1,1.09-.92h10c1.51,0,1.3,1.76.33,1.76H21.41a.88.88,0,0,1-.84-.84ZM9.87,39.57c1.9,0,2.7-1.12,2.93-2.76a.89.89,0,0,1,1-.84H34.46V3.18A3,3,0,0,0,33.25.54C32.33-.1,31.35,0,29.86,0H6.44c0,.26.46.85.74,1.93.2.8.1,6.83.1,7.94V36.73A2.68,2.68,0,0,0,9.87,39.57Z"/><path class="cls-1" d="M13.55,39.65H34.71c1.84,0,3.21.2,4.33-.94.15-.15.91-1,.35-1H14.55c-.27,0-.22.15-.29.37C14,38.82,13.61,39.41,13.55,39.65Z"/><path class="cls-1" d="M0,2.85V6.7H5.52V2.77A2.62,2.62,0,0,0,3.84.35,2.71,2.71,0,0,0,0,2.85Z"/><rect class="cls-2" x="11.63" y="27.36" width="5.19" height="4.77"/><path class="cls-1" d="M11.63,15.9v4.51h5.18V15.9c0-.2-.06-.25-.25-.25H11.88C11.68,15.65,11.63,15.7,11.63,15.9Z"/><path class="cls-1" d="M11.63,8.62c.32,0,.38.06.58.06l.67-.06c.2,0,.32.05.43.05L14,8.62c.33,0,.38.06.58.06s.26-.06.59-.06.38.06.58.06l1.09-.06V3.94H11.63Z"/></g></g></svg>