<svg xmlns="http://www.w3.org/2000/svg" viewBox="0 0 34.15 30.52"><defs><style>.cls-1{fill:#73be99;fill-rule:evenodd;}</style></defs><g id="Layer_2" data-name="Layer 2"><g id="Layer_1-2" data-name="Layer 1"><path class="cls-1" d="M6.83,22.53a18.08,18.08,0,0,1,2.79,2.28l-2.72,0-.07-2.3Zm4,1.41c.18.19-.24.19.25.15l0-2.61c-.17-.06-3.74-.4-3.13.09a32.53,32.53,0,0,0,2.92,2.37Zm-4-6.38A25.06,25.06,0,0,1,10,20.16H6.87l0-2.6Zm4,1.58c.3-.26.28.52.25-.46A6.48,6.48,0,0,0,11,16.44H7.75c-.11.62-.07.12.13.31a25.76,25.76,0,0,1,3,2.4Zm-4-6.53a13.24,13.24,0,0,1,1.63,1.24A18.41,18.41,0,0,1,10,15.18H6.83V12.61ZM11,14.11V11.55l-3.18,0c.89.63,2.29,2.19,3.17,2.54ZM6.85,7.64,9.78,10l-2.95.21,0-2.59ZM11,9.16V6.57H7.85A14.23,14.23,0,0,0,10,8.49l1,.67ZM6.82,2.67A22.29,22.29,0,0,1,10,5.28H6.85l0-2.6Zm3.85,1.45c.26.24-.38.33.42.15l0-2.38a7.33,7.33,0,0,0-3,.08c-.11.63,0,0,.25.3a11.78,11.78,0,0,1,2.33,1.85ZM0,5.77V6.1l.72,4.47L4.84,10c.39.71.16,14.34.14,14.9L.78,25l0,5.53H17.05V24.83H12.92L13,8.71l8.91-1.35,0,1.11-2.06,0v4.41h5.6V8.48h-2.2l0-1.35,4.23-.62L26.64,1.7,12.92,3.77V0l-8,.06V5Z"/><path class="cls-1" d="M27.75,22.9h2.68a24,24,0,0,1-.1,4.52H27.82l-.07-4.52Zm-1.67,0c.26.19.11,0,.18.33a5.71,5.71,0,0,1,0,.59l-.06,3.59-2.09.08a1.27,1.27,0,0,1-.28,0c-.37-.09-.09,0-.31-.17V22.9Zm1.66-5.76C28,17,27.33,17,29,17a7.12,7.12,0,0,1,1.46.08,19.48,19.48,0,0,1,0,4.58,7.15,7.15,0,0,1-2.66-.12l0-4.37Zm-4.2.05c.17-.3,0-.21,1.2-.2a7.11,7.11,0,0,1,1.46.06,16.64,16.64,0,0,1,0,4.57c-.57.05-2.21.24-2.62-.13V17.2ZM34.15,30.52V9.27H26.58v4.54H19.81V30.52Z"/><path class="cls-1" d="M.78,25,5,24.87c0-.56.25-14.19-.14-14.9V24.8c-.71,0-1.42,0-2.12,0C1.77,24.79,1,24.61.78,25Z"/></g></g></svg>