<svg xmlns="http://www.w3.org/2000/svg" viewBox="0 0 26.97 32.69"><defs><style>.cls-1{fill:#73be99;fill-rule:evenodd;}</style></defs><g id="Layer_2" data-name="Layer 2"><g id="Layer_1-2" data-name="Layer 1"><path class="cls-1" d="M2.66,7.82c0-.16-.06-.05.07-.17a1.88,1.88,0,0,1,1.16-.72h.23c.21-.16,9.15,0,10.25-.06.1,0,.29,0,.38,0,.33,0,.13,0,.21.08s0-.11.07.11l0,2.66c.78,3.7,4.07,2.53,5.75,2.8.16.68.07,10.58.06,12.14a34.08,34.08,0,0,1-.07,3.94A2,2,0,0,1,19,30.43c-.21.19-6.58.07-7.42.06H5.94a6.77,6.77,0,0,1-1.77,0H4A2.1,2.1,0,0,1,2.32,29a14.45,14.45,0,0,1-.12-3V10.41c0-.75-.13-2.23.46-2.59ZM6.82,0C6.46.16,6,.18,5.52.41,4,1.18,3.78,1.86,3.16,3.14h2.5a1.74,1.74,0,0,1,1.51-.88c.25-.16,4.64-.06,5.35-.06,1.41,0,10-.1,10.62.08a2.12,2.12,0,0,1,1.43,1.25A7.68,7.68,0,0,1,24.74,6V22.09a7,7,0,0,1-.2,2.46,2.06,2.06,0,0,1-1.48,1.19V13.22a3.92,3.92,0,0,0-1.19-3c-.1,0-.05.08-.12-.09A6.37,6.37,0,0,1,20.6,9l-.11-.11a6.17,6.17,0,0,1-1.16-1.18c-.09,0,0,.09-.12-.1a6.12,6.12,0,0,1-1.16-1.17l-.11-.11c-.44-.25-.63-.69-1.12-1a4.26,4.26,0,0,0-.71-.37,3.48,3.48,0,0,1-.77-.26l-1.23,0H5.22a8.89,8.89,0,0,0-1.64.07c-.36.06-1,.35-1.2.36l-.16.13a.62.62,0,0,1-.12.08l-.8.55a1.23,1.23,0,0,1-.21.29c-.1.12-.08.14-.2.18A11.49,11.49,0,0,0,.28,7.49,5,5,0,0,0,0,8.93V28.1a4.55,4.55,0,0,0,.65,2.54,4.41,4.41,0,0,0,2,1.71l1.24.33H19.23l1.19-.28.91-.54.34-.35A4,4,0,0,0,23,29.28,9.85,9.85,0,0,1,23.12,28a4.47,4.47,0,0,0,3.12-2c.84-1.26.7-2.66.71-4.37V5.11l0-1.22c-.07-.1-.35-1.17-.5-1.49-.25-.51-.59-.8-.78-1.17C25.43,1.12,25,.7,24.55.47a6.72,6.72,0,0,0-.67-.28A5.48,5.48,0,0,1,23.13,0Z"/><path class="cls-1" d="M13.1,27.89h4.18a3.74,3.74,0,0,0,1.39-.16,3.82,3.82,0,0,0,.4-.34,3.17,3.17,0,0,0,.31-.47A2,2,0,0,0,19,25.4a.73.73,0,0,1-.37-.22,4,4,0,0,0-1.4-.16H6.09a3.2,3.2,0,0,0-1.65.25,1.43,1.43,0,0,0-.63,1.16,1.39,1.39,0,0,0,.64,1.22,2.74,2.74,0,0,0,1.5.24C8.32,27.91,10.72,27.9,13.1,27.89Z"/><path class="cls-1" d="M4.65,19c-.18.19-.35.21-.51.41a3.08,3.08,0,0,1-.34.52,3.37,3.37,0,0,0,0,.77,1.34,1.34,0,0,0,.09.26c.1.24.06,0,.08.24l.33.27a1.35,1.35,0,0,1,.32.26l.36,0c2.28.07,4.61,0,6.89,0,1.4,0,5.82.17,6.81-.18,0-.07,0,0,.14-.14s.06-.11.22-.12a1.63,1.63,0,0,0,.27-1.48,1.31,1.31,0,0,0-.3-.46l-.19-.16c-.14-.14-.08-.06-.13-.15a14,14,0,0,0-3.51-.16c-1.17,0-2.35,0-3.52,0C9.35,18.91,7,18.9,4.65,19Z"/><path class="cls-1" d="M6.49,14.41c.27,1.08,1,1.18,2.21,1.17h5.56c1.11,0,1.87,0,2.3-.77a1.42,1.42,0,0,0-.7-2c-.61-.27-4.8-.13-5.82-.12H8.7A2.54,2.54,0,0,0,7.08,13,1.56,1.56,0,0,0,6.49,14.41Z"/></g></g></svg>