<svg xmlns="http://www.w3.org/2000/svg" viewBox="0 0 79.5 34.19"><defs><style>.cls-1{fill:#fff;fill-rule:evenodd;}</style></defs><g id="Layer_2" data-name="Layer 2"><g id="Layer_1-2" data-name="Layer 1"><path class="cls-1" d="M19.14,22c.82-.18.66-.47,1.39-1.35,2-2.46,3.61-1.39,5.49.45,2.34-.78,3.25-.67,4.58,1,4.32-1.55,4.15-1.25,6.17,2.14,3.34-.07,2.16.6,7.21,3.72l3.42,2.09c1.69,1,2.43,1.57,4.31.62.84-3-1.48-3.53-3.57-4.84-2.3-1.44-5-2.36-4.56-3.89C46,22,55.64,31.18,56.44,26.39c.26-1.56-.85-2.17-2-2.81-1.39-.81-11.95-6.46-8.16-6.32.9,0,7.22,4.21,8.4,4.92,1,.61,2.08,1.41,3.07,1.88,2.47,1.18,5.05-1.73,1.25-3.89-2.1-1.19-4.16-2.52-6.12-3.75S49,14,47,12.78C35.56,6,38.89,9,33.54,11c-2.88,1.11-6.29,0-7.13-2,.82-1.52,2.75-1.8,3.57-3.66A37.68,37.68,0,0,0,24.86,7c-2.22.84-3.4,5.88-4.76,9.49C19.46,18.19,18.08,20.28,19.14,22Z"/><path class="cls-1" d="M79.49,20.21c.31-2.57-3.76-15.1-4.76-18.33C74.16,0,73.36-.27,71.28.26l-9,2.64c-1.63.45-3.38.55-3.84,2-.38,1.2,4,15.79,4.73,17.83,1.3,3.62,6.2.85,12.25-.86C77.48,21.26,77.76,21.35,79.49,20.21Z"/><path class="cls-1" d="M15,24.84c.93-.49.82-.75,1.28-2L19,15.68c.9-2.38,3.39-7.84,3.26-10.28C18.85,3.35,14.33,2.05,10.4.54,7-.76,6.75.34,5.66,3.21c-.77,2.05-1.55,4.1-2.31,6.11S1.83,13.4,1,15.44C0,18.25-1,19.67,2.26,20.9,4.5,21.74,13.31,25.59,15,24.84Z"/><path class="cls-1" d="M28.13,9.32c4.72,2.32,6-.7,8.55-1.51,3.65-1.14,6.69,1.38,9,2.78,2.62,1.6,5,3.05,7.57,4.63C55.35,16.52,59,19,61,19.81c-.54-3.15-2.18-7.74-3.1-10.93C56.46,4,55.79,9.35,47.41,5.65,44,4.14,40.47,2.48,35.91,3c-2,.21-2.86,1.84-4.06,2.9A27.8,27.8,0,0,0,28.13,9.32Z"/><path class="cls-1" d="M32.63,22.55c-1.41.45-3.39,6.65-2.69,8.09a1.94,1.94,0,0,0,2.55.88c1.22-.52,1.73-3.4,2.25-5.06C35.32,24.6,35.33,21.69,32.63,22.55Z"/><path class="cls-1" d="M39.68,26.34c-.9-.58-.9-1.08-2.28-.8-2.08.44-2.91,6.54-2.71,7.07.46,1.21,2.9,2.4,3.86-.59C39.15,30.2,39.93,28.36,39.68,26.34Z"/><path class="cls-1" d="M27.35,22.12c-1.15.39-.93,0-1.44,1.63-.58,1.78-2.12,6.73,1.65,5.44C29.6,28.49,31.38,20.74,27.35,22.12Z"/><path class="cls-1" d="M40.24,31.7a19.1,19.1,0,0,0,3,1.94c1.68,1,2.06.57,3.36-.4.28-2.06-.61-2.59-1.94-3.36a33.6,33.6,0,0,0-3.64-2.11C40.82,29.31,40.17,30.22,40.24,31.7Z"/><path class="cls-1" d="M22.05,20.92c-.87.4-.76,0-1.25,1.22-1,2.56.91,4.09,2.63,3.21C25.39,24.35,25.18,19.49,22.05,20.92Z"/></g></g></svg>