<svg xmlns="http://www.w3.org/2000/svg" viewBox="0 0 33.23 32.35"><defs><style>.cls-1{fill:#65072a;fill-rule:evenodd;}</style></defs><g id="Layer_2" data-name="Layer 2"><g id="Layer_1-2" data-name="Layer 1"><path class="cls-1" d="M20.45,6.5A5.62,5.62,0,1,1,15.67,13,5.65,5.65,0,0,1,20.45,6.5ZM31,5c-1.43,0-1.93,1.23-2.91.25s.06-1.29.22-2.92a6.48,6.48,0,0,0-2.36-1.27A19.24,19.24,0,0,1,24.47,2.9C23,2.51,23.09,2.71,22.89,2A11.9,11.9,0,0,0,22.46,0c-.58,0-1.29,0-1.85,0-.91,0-.76.08-.9,1-.24,1.54,0,1.75-1.76,1.87-.57-.68-1.12-1.51-1.72-1.76l-1.9,1.11.52,2.51-1,1.06L11.52,5a1.82,1.82,0,0,0-.44.54c-1.28,2-.9,1.68.05,2.55a4.21,4.21,0,0,0,.92.64c-.52,3.56-2.68.36-2.87,2.73,0,.15,0,.46,0,.63,0,.42,0,.84,0,1.25.72.31,1.88.28,2.52.64l.34,1.46a6.89,6.89,0,0,0-1.82,1.52,5.54,5.54,0,0,0,.49,1.1c5.57,0,5.86,1.79,8.38,2.16,1.77.27,5.23.42,6.78,1.21.67.34,1.09.84,1.49,1a3.08,3.08,0,0,0,1-.63l-.79-2.34,1.06-1a11.31,11.31,0,0,0,2.35.71,8.66,8.66,0,0,0,1.23-2.18c-.58-.73-1.23-1-1.81-1.73l.34-1.35,2.49-.53,0-2.58-2.44-.52-.36-1.3c.46-.62,1.22-1,1.82-1.72A8.25,8.25,0,0,0,31,5Z"/><path class="cls-1" d="M17.36,25.41c1.5-.7,7.11.63,8.33,0a2.4,2.4,0,0,0,1.09-1.93c-.11-2.68-6.9-2-8.92-2.89-3.58-1.54-5-2.46-9.84-1.56-3.74.68-3.34.71-3.33,2.73C4.74,29.25,4.2,27,7,27.94c4.52,1.56,7.9,5,12.68,4.34,6.21-.83,6.77-.5,11.15-3.78,2-1.54,1.88-1.8,1.15-2.81.58-.51.52-.28.48-1.29-.95-.61-1.71-1.25-3.62-.09-1.2.72-1.35,1.44-3.12,1.9C22.92,26.94,19.55,26.77,17.36,25.41Z"/><path class="cls-1" d="M3.59,29.06a4.32,4.32,0,0,0,.18-1v-8.8c0-.91-.1-1.1-1-1.1a10.16,10.16,0,0,0-2.61.14L.05,27.13C.05,28.59-.68,29.68,3.59,29.06Z"/></g></g></svg>