<svg xmlns="http://www.w3.org/2000/svg" viewBox="0 0 35.14 35.28"><defs><style>.cls-1{fill:#65072a;fill-rule:evenodd;}</style></defs><g id="Layer_2" data-name="Layer 2"><g id="Layer_1-2" data-name="Layer 1"><path class="cls-1" d="M21.3,26.62c1.3,1.23,7.38,7.69,8.48,8.26,3.07,1.6,6.53-1.94,5-5-.56-1.09-6.86-7-8.21-8.57.24-.7.61-1.33.92-2.19A14.21,14.21,0,0,0,7.84,1.51a14.35,14.35,0,0,0-5,21.41,12.23,12.23,0,0,0,1.51,1.61c3,3.48,9.52,4.88,14.56,3.08.83-.3,1.57-.78,2.35-1ZM13.13,4.44A9.86,9.86,0,1,1,4.34,15.2,9.9,9.9,0,0,1,13.13,4.44Z"/><path class="cls-1" d="M5.74,16c0,2.72,2.64,5.34,4.48,6.14.08-5-.53-4.72,2.14-4.71,3.82,0,2,.24,2.44,4.55.22,2.17,3.53,0,4.48-.47V16.73c0-1-.3-1-1.4-2.05s-4.27-4.47-5.35-5.06C10.83,10.54,7.27,15,5.74,16Z"/><path class="cls-1" d="M5.3,15.25a30.76,30.76,0,0,0,3.58-3.32,35.22,35.22,0,0,1,3.64-3.49,36.13,36.13,0,0,1,3.57,3.41,27.81,27.81,0,0,0,3.68,3.41,1.7,1.7,0,0,0,1.18-1c.1-.77-7.65-8.28-8.43-8.63-1,.43-3.52,3.2-4.38,4.08C5.46,12.4,5.17,12.18,5.3,15.25Z"/></g></g></svg>