<svg xmlns="http://www.w3.org/2000/svg" viewBox="0 0 71.62 43.69"><defs><style>.cls-1{fill:#65072a;fill-rule:evenodd;}</style></defs><g id="Layer_2" data-name="Layer 2"><g id="Layer_1-2" data-name="Layer 1"><path class="cls-1" d="M42.32,15.47c-.32,1.33-.54,1.8.75,2.51l-14.49.15c3.1-2.59-1.75-2.8-3.38-2.81-4.39,0-3.71.43-6.53-1.65-1.73-1.29-7.41-6.79-9.48.22C8.64,15.79,6.58,25.56,7,27.19c1,4,9.57,2.7,13.44,2.7,0,2.07-.26,11,.21,12.27a2.68,2.68,0,0,0,3.94,1.07c1.37-.94,1-3.29,1-5.27,0-2.22.26-10.72-.28-12.21-1.14-3.15-7.29-2.1-10.9-2.1l1.79-7.58A23.59,23.59,0,0,1,18.78,18c-1.41,1.19-1.73.64-1.27,3.18,2.26,1.39,9.06.69,12.45.69V43.09H41.7V21.82c3.26,0,9.54.65,11.7-.7.52-2.71,0-1.74-1-3.22,1.25-.82,2-1.53,3.14-2.2l1.85,7.47c-3.48.44-9.22-1-10.79,1.69-.64,1.07-1.27,16.14.06,17.71a2.71,2.71,0,0,0,4.13-.32c.84-1.43.39-10.18.39-12.44,15.89,0,15.2,1,11.86-15-2.18-10.48-9.13.1-13.25.26C47.35,15.14,44.39,14.87,42.32,15.47Z"/><path class="cls-1" d="M53.26,30.89c-.65,1.52-.66,1.59,0,3.12,6.29.9,14.29,1.19,16.25-6,.72-2.63,2.54-10.38,2-12.56-3.43-1.31-3.32,1.28-3.91,4.1-.46,2.21-.9,4.69-1.45,7C64.63,32.75,58.63,29.79,53.26,30.89Z"/><path class="cls-1" d="M10.89,34.29H16c4.2,0,3.7-3.44.76-3.68-2.47-.2-6.31.43-8.43-.4C4.44,28.7,4.8,21.17,3.63,17c-.76-2.7-4.22-2.55-3.54,1.28C1.75,27.76,2.49,34.29,10.89,34.29Z"/><path class="cls-1" d="M13.28.51c-6.42,1.81-3.43,10.58,2.6,8.72C21.18,7.6,18.83-1,13.28.51Z"/><path class="cls-1" d="M55.88.37c-5.11,1.95-2.66,10.71,3.32,8.52C64.6,6.91,61.82-1.9,55.88.37Z"/></g></g></svg>