<svg xmlns="http://www.w3.org/2000/svg" viewBox="0 0 37.53 37.71"><defs><style>.cls-1{fill:#fff;fill-rule:evenodd;}</style></defs><g id="Layer_2" data-name="Layer 2"><g id="Layer_1-2" data-name="Layer 1"><path class="cls-1" d="M0,2.46v32.8c0,1.9.33,2.45,2.3,2.45H26.72c2.87,0,2.41-1.67,2.4-4.13V26.79c-1,1-.64,2-3.4,3.15v4.32c-4.59.26-17,0-22.32,0V3.41H25.71V9.87a38.29,38.29,0,0,0,2.92-4.76C29.08,4.35,30.45,0,26.72,0H2.3C.33,0,0,.56,0,2.46Z"/><path class="cls-1" d="M31,4.64c-.87.78-8.32,14.33-10.23,17.49-1.05,1.77-1,4.46-1.09,7.15-.17,3.34,1.22,1.86,4.54-.34s2.6-1.75,5-6L37.41,8.81c.57-1.53-1-2.76-1.9-3.41S32.15,3.63,31,4.64Zm-9.9,22.24L21.25,25a6.78,6.78,0,0,1,3.55,2l-1.67,1.08A10.78,10.78,0,0,1,21.11,26.88Z"/><path class="cls-1" d="M8.76,16.58h11.5c1.4,0,2.37-.28,2.4-1.69s-1.06-1.73-2.4-1.73H8.76C5.42,13.16,5.75,16.58,8.76,16.58Z"/><path class="cls-1" d="M8.76,10.13H20.49c3,0,3.1-3.42-.23-3.42H8.76C5.47,6.71,5.67,10.13,8.76,10.13Z"/><path class="cls-1" d="M8.76,23c3.07,0,8.74.79,7.3-2.45-.64-1.47-4.59-.94-7.3-.94C5.4,19.6,5.73,23,8.76,23Z"/><path class="cls-1" d="M8.94,29.41l.26,1.3c1.21,0,.49,0,1.37-.42l0,.92c2.09-.11.34-.67,2.06.25,1.33-.09,1.47-.57,3.17-.32,1.37.19,2.5.8,2.72-.61-.92-.84-4.58-.46-4.94-.57l-1.91-1.38c.68-1.85.73-3.89-1.54-2,0,0-6.24,5.94-4,6C6.87,32.55,8.67,30,8.94,29.41Z"/></g></g></svg>