<svg xmlns="http://www.w3.org/2000/svg" viewBox="0 0 39.26 39.26"><defs><style>.cls-1{fill:#73be99;fill-rule:evenodd;}</style></defs><g id="Layer_2" data-name="Layer 2"><g id="Layer_1-2" data-name="Layer 1"><path class="cls-1" d="M0,25.46a3.77,3.77,0,0,0,1,2.93,3.81,3.81,0,0,0,2.21,1.24l15,2.23c1,.15,1.75-.74,2.56-.81-.2-.26.06-.08-.3-.15l-.41,0L14.39,30c-2.19-.31-4.3-.6-6.47-1-.77-.13-4.26-.59-4.79-.73-2.63-.74-2.65-4.92,1-4.92,2.48,0,.58,2.47,4.92-4.05,1.34-2,2.64-4,4-6l6.28.78c.76.1,5.65.76,6.3.76,0-.42.27-.81.31-1.23a13.34,13.34,0,0,1-1.52-.17c-1.39-.17-9.82-1.29-10.52-1.29.07-.33,1.93-3,2.32-3.59.18-.27.35-.47.19-.83s-.41-.36-.77-.46a5,5,0,0,0-5.36,2L.51,23.9A5.49,5.49,0,0,0,0,25.46Z"/><path class="cls-1" d="M22.85,23c0-.19.64-1.76,1.23-1.76a.65.65,0,0,1,.61.61s-.86,2.13-1.3,2.31a21.42,21.42,0,0,1-3.14-.39c-.55-.08-1-.17-1.6-.24s-1.13-.1-1.15-.69a13.34,13.34,0,0,1,.95-1.78c.37-.67,1.6-.4,1,.67-.46.82-.42.69.1.75l3.32.52Zm-9.51-4.06a.62.62,0,0,0,.81.66,8.29,8.29,0,0,1,1.26-.2c-.37.71-2.83,4.76-2.83,5.14,0,.77,1,.71,2,.84l10,1.49c1.11.17,1,.22,1.67-1,.35-.63.68-1.18,1-1.81l1-1.89c.57.15.88,1,1.54,1,.38,0,1.21-.52,0-1.49l-2-1.83c-.18-.15-.25-.17-.43-.34s-3.23-2.94-3.27-2.94c-.8,0-8.28,1.47-9.73,1.7C13.88,18.33,13.34,18.37,13.34,18.94Z"/><path class="cls-1" d="M30.06,35.65a25.8,25.8,0,0,1-2.83-.93,10.42,10.42,0,0,1-2.32-.89c-.56-.76.63-1.1,1.38-1.41s5-2.29,5.38-2.29a.6.6,0,0,1,.53.62l-1.39,3.9c-.13.36-.27,1-.75,1Zm1.3,3.61c.43,0,.56-.43.87-1.35.2-.58.41-1.07.6-1.63s.4-1.13.59-1.63c.34-.91,2.92-7.94,2.92-8.27,0-1.33-2-.05-2.94.35l-2.3,1c-.37.18-.73.34-1.11.5l-2.34,1c-.41.2-.76.32-1.17.52l-8,3.54c-.41.17-.89.27-.89.8s.59.7,1.46,1l8.69,3a31.39,31.39,0,0,0,3.53,1.18Z"/><path class="cls-1" d="M30.59,6.21l.58,1.57a9.64,9.64,0,0,1,.42,1.57H29.75c.05-.59.81-2.69.84-3.14Zm.23-1.3a1.2,1.2,0,1,1-.3-2.38,1.2,1.2,0,0,1,.3,2.38ZM30.06,1.3a5.21,5.21,0,0,0-.68.32,2.49,2.49,0,0,0-.44,3.87c.22.19.26.17.43.41l-1,3.45c-.8,0-1.71-.16-1.88.51-.24,1,1.15.8,1.5.8,0,.55-1.54,5.11-1.54,5.75a.62.62,0,0,0,1.22.15c.09-.25.17-.58.24-.84l1.46-5.06H32l1.43,5c.09.31.13.53.23.84a.64.64,0,0,0,1.26-.11l-1.61-5.75c.89,0,1.53.15,1.53-.69s-1-.62-1.92-.62a10,10,0,0,0-.46-1.76c-.08-.32-.16-.53-.26-.89a5.6,5.6,0,0,0-.27-.87A2.45,2.45,0,0,0,32,1.65a8.08,8.08,0,0,0-.73-.35c0-.69.09-1.3-.61-1.3S30.06.61,30.06,1.3Z"/><path class="cls-1" d="M5.44,26.84a.53.53,0,0,0,.24.53,6.68,6.68,0,0,0,1.59.32l15.5,2.37a22.11,22.11,0,0,0,2.15-.85c-.17-.22,0-.12-.84-.23l-1-.15c-.65-.09-1.32-.22-2-.31-1.31-.18-2.68-.39-4-.61-2.91-.5-6-.87-8.92-1.36-1.35-.22-1.5.5,1.74-4.36l2.76-4.14a1.4,1.4,0,0,0,.33-.77.64.64,0,0,0-1.22-.2C10,19.65,8,22.81,6.23,25.47,6.05,25.74,5.44,26.52,5.44,26.84Z"/><path class="cls-1" d="M37.57,16.41c-.1.45-5.33,9.08-5.44,9.58.23-.12.47-.2.74-.33,1.27-.61,1-.19,1.73-1.48.28-.5.51-.88.79-1.36L37,20.09A38,38,0,0,0,39.26,16a.61.61,0,0,0-.57-.66l-3-.34.27.88c0,.24,0,.23.11.35A4.66,4.66,0,0,0,37.57,16.41Z"/><path class="cls-1" d="M27.07,33.35a10.75,10.75,0,0,0,2.6.92l.85-2.37a3.06,3.06,0,0,0-.89.34c-.31.12-.54.24-.85.37Z"/><path class="cls-1" d="M29.29,15.41c1,0,1.93.31,2.91.31a9.44,9.44,0,0,1-.38-1.3c-.25,0-2.1-.25-2.22-.31A5.37,5.37,0,0,0,29.29,15.41Z"/></g></g></svg>