<svg xmlns="http://www.w3.org/2000/svg" viewBox="0 0 36.2 37.37"><defs><style>.cls-1{fill:#73be99;fill-rule:evenodd;}</style></defs><g id="Layer_2" data-name="Layer 2"><g id="Layer_1-2" data-name="Layer 1"><path class="cls-1" d="M6.63,28C8.76,27.74,14,27,10.92,30.67a7.59,7.59,0,0,1,1.65,2.26l-1.85.16a6.15,6.15,0,0,1-.8-1.18c-.42-.66-.32-.68-1.24-.86l.25,2.32-1.72.14L6.63,28ZM17.15,27l-4.57.4.61,5.46,4.63-.43-.11-1.07c-1.81-.67-3.05,1.38-3-.86l2.58-.38L17.17,29c-1,0-2.15.41-2.69-.07.13-1.41,1.39-.2,2.75-1.09L17.15,27Zm12.23-1.4.09,1.3-1.7.35.36,4.05-1.62.09-.45-4-1.77,0-.09-1.22,5.18-.56Zm-7.29,3.55-.22-2.74,1.53-.14L24,31.72c-2.93.28-2.1-1.23-3.93-2.47l.18,2.84-1.5.2-.58-5.43c1.19-.29,1.59-.27,2.3.56.86,1,0,.46,1.61,1.69Zm-21,7.24c.61.29.93.61,1.8,1,2.38.13,19-2,23-2.38,11.13-1.13,10.89-.32,10-8-.25-2,0-3.72-1.45-4.8s-3.81-.33-5.49-.15l-17,1.85c-2.18.24-9.69.62-10.9,1.7C-1.08,27.42.76,33.75,1.07,36.35Z"/><path class="cls-1" d="M26.49,20.94l-3.66,0c-.13-.3,0,.32-.17-.51l.06-3.39a9.88,9.88,0,0,1,3.91.05l.08,3.13c-.07.8,0,.36-.22.67ZM9.56,17.12l3.79,0,0,3.89L9.5,20.9l.06-3.78Zm13.2-6.22,3.9,0-.13,3.88H24.82l-2.05,0V10.9Zm-6.59,0,2.58,0H19l1.05.06v.88L20,14.74H16.19l0-3.84Zm-6.65,0,3.86,0v2l0,1.09-.12.77H10.94l-1.42,0V10.89Zm6,6.2h5.16l0,5.32,7.81-.78,0-12.31-20.93,0,0,14.55L15.44,23Z"/><path class="cls-1" d="M11.17,3.35H7.26L6.2,8.81c3,0,22.52.21,23.72-.12l-1-5.35H13.39c.07-4.35.35-.93.47-3.34H10.69c.05.8.23.67.41,1.26a1.09,1.09,0,0,1,.05.17A8.69,8.69,0,0,1,11.17,3.35Z"/><path class="cls-1" d="M8.52,30.09c1.16-.15,1.67,0,1.42-1-.57-.34-.6-.25-1.46-.19Z"/></g></g></svg>