<svg xmlns="http://www.w3.org/2000/svg" viewBox="0 0 43.53 30.45"><defs><style>.cls-1{fill:#73be99;fill-rule:evenodd;}</style></defs><g id="Layer_2" data-name="Layer 2"><g id="Layer_1-2" data-name="Layer 1"><path class="cls-1" d="M2.38,20.15a11.77,11.77,0,0,1,1.39.31c.51.11.94.21,1.45.34l2.86.63V27.8H2.38V20.15Zm0-4.59c.28.1.07,0,.32.27,1,1.07.87.71.87,2a3.73,3.73,0,0,1-1.19-.26v-2Zm1-2.72V10.12c0-.24,0-.16.17-.26v3.23c-.14-.1-.17,0-.17-.25ZM.94,9.1v4.16c0,.47.16.57.25.94-.29.14-.49.09-.78.32A1.11,1.11,0,0,0,0,15.3V29.16a1.16,1.16,0,0,0,1,1h8.5a1.06,1.06,0,0,0,.79-.48c.41-.49.23-3.05.23-3.77V20.66a6.54,6.54,0,0,1,.65.12c.47.08.64-.21.63,1.75,0,1.3.33,4.71.34,6.13,0,2.45,3.1,2.33,2.9,0-.16-1.9-.21-3.75-.26-5.6,0-.41-.07-.39-.09-.76-.21-3.81.46-3.8-3.88-4.54-.61-.11-.55.11-.54-1.16,0-2.24,0-4.48,0-6.72.3.08.22,0,.26.34v4.6c0,.87.61,1.07,1.19,1.36a4.73,4.73,0,0,0,2,.76,1.22,1.22,0,0,0,1-1.73c-.24-.53-1.29-.88-1.82-1.16V10.88c0-1.11.19-2.26-.44-2.78A15.24,15.24,0,0,0,7.31,6.89c-.07.32-.22.4-.23.67l.32,2.55c.1.83.42,2.89.42,3.49a4.53,4.53,0,0,1-.93,1.7c-1.11-2.1-.93-1.08-.58-4l.44-3.39c.11-.76-.06-.44-.2-1a13.4,13.4,0,0,0-3.35.56C2.19,7.7.94,7.91.94,9.1Z"/><path class="cls-1" d="M35.46,21.43c.41,0,2.29-.5,2.85-.63l2.84-.65V27.8H35.46V21.43ZM40,17.86c0-1-.13-1,.53-1.69.18-.17.53-.6.66-.7V17.6a3.73,3.73,0,0,1-1.19.26Zm0-4.77V9.86c.15.1.17,0,.17.26v2.72c0,.25-.16.24-.17.25ZM26.78,9.44c.11-.47.47-.54,0-.85-.6.16-.36.89-1,1.16-.4.17-.39.1-.68.43a1.26,1.26,0,0,0-.31.79c0,.72.4.15-.12,1.16a5.12,5.12,0,0,0-.56,1.22c0,.32,0,0,.08.25.39,0,.34-.09.68-.68a4.16,4.16,0,0,0,.43-.93,2.49,2.49,0,0,0,.76.17A30,30,0,0,0,29.66,11l3.58-1.18v6.72c0,1.37.37,1-1.89,1.42-2.61.53-2.42.63-2.52,4.19,0,.41-.07.39-.09.77s0,.57,0,.85-.08.35-.09.76l-.17,4c-.08,1,.25,1.87,1.45,1.87a1.52,1.52,0,0,0,1.45-1.7l.42-7.65c.08-.35.06-.23.47-.3s.49-.11.72-.13v8c0,.83.27,1.52,1.19,1.52h8.33a1.15,1.15,0,0,0,1-1V15.3c0-.88-1-1-1.19-1.1.09-.37.26-.47.26-.94v-4c0-1.31-.94-1.49-2.19-1.81A14.62,14.62,0,0,0,37,6.89c-.11.47-.31.36-.23,1l.74,5.66a.64.64,0,0,1-.12.47l-.73,1.3a5.88,5.88,0,0,1-1-1.61c0-.34.23-1.81.29-2.3l.44-3.48c.1-.8,0-.4-.18-1a17,17,0,0,0-4.92,1L27.92,9.05A10.12,10.12,0,0,0,26.78,9.44Z"/><path class="cls-1" d="M15.05,15.3c0,.92.71,1.45,1.7,1.45V29.08a1.2,1.2,0,0,0,1.19,1.1h7.65a.94.94,0,0,0,.8-.31,1.2,1.2,0,0,0,.39-.79V16.75a1.46,1.46,0,1,0,.43-2.89H16.32A1.46,1.46,0,0,0,15.05,15.3Z"/><path class="cls-1" d="M3.91,2.89a3.83,3.83,0,0,0,.85,2.55A2.69,2.69,0,0,0,7.14,6.63C8.5,6.63,10,4.73,10,3.32V2.81A3,3,0,0,0,6.8,0,3,3,0,0,0,3.91,2.89Z"/><path class="cls-1" d="M33.58,2.81v.51c0,1.41,1.45,3.31,2.81,3.31a2.7,2.7,0,0,0,2.35-1.14C40.62,3,39.32,0,36.48,0A3,3,0,0,0,33.58,2.81Z"/></g></g></svg>